<?xml version="1.0" encoding="UTF-8"?>
<svg id="Layer_2" data-name="Layer 2" xmlns="http://www.w3.org/2000/svg" viewBox="0 0 577.7 507.19">
  <defs>
    <style>
      .cls-1, .cls-2, .cls-3, .cls-4, .cls-5, .cls-6, .cls-7 {
        stroke-miterlimit: 10;
      }

      .cls-1, .cls-2, .cls-3, .cls-4, .cls-5, .cls-7 {
        stroke: #fff;
      }

      .cls-1, .cls-3, .cls-5, .cls-6 {
        stroke-linecap: round;
        stroke-width: 3.59px;
      }

      .cls-1, .cls-5 {
        fill: none;
      }

      .cls-8 {
        fill: #e6e7e8;
        opacity: .2;
      }

      .cls-8, .cls-9, .cls-10, .cls-11 {
        stroke-width: 0px;
      }

      .cls-2 {
        stroke-width: .18px;
      }

      .cls-2, .cls-3, .cls-9, .cls-6, .cls-7 {
        fill: #fff;
      }

      .cls-4 {
        fill: #1e4697;
        stroke-width: .61px;
      }

      .cls-10 {
        fill: #58595b;
        opacity: .4;
      }

      .cls-5 {
        stroke-dasharray: 0 0 14.03 14.03;
      }

      .cls-11 {
        fill: #f1f2f2;
      }

      .cls-6 {
        stroke: #f1f2f2;
      }

      .cls-7 {
        stroke-width: 1.26px;
      }
    </style>
  </defs>
  <g id="Layer_1-2" data-name="Layer 1">
    <g>
      <polygon class="cls-4" points="433.1 .31 144.6 .31 .35 253.59 144.6 506.88 433.1 506.88 577.35 253.59 433.1 .31"/>
      <line class="cls-3" x1="133.65" y1="183.49" x2="133.65" y2="400.72"/>
      <path class="cls-2" d="M197.42,121.22c-.85,0-1.54-.69-1.54-1.54v-39.54c0-.85.69-1.54,1.54-1.54s1.54.69,1.54,1.54v2.55h9.02c2.78,0,5.13,2.17,5.36,4.94l.1,1.24h19.3l.4-.41c2.35-2.41,5.34-3.98,8.64-4.54l1.12-.19v-8.04l-.96-.29c-1.28-.38-2.48-1.07-3.46-1.98l-.55-.51-.73.2c-5.93,1.65-12.95,2.66-15.37,2.66-4.84,0-8.77-3.94-8.77-8.77s3.94-8.77,8.77-8.77c2.42,0,9.44,1.01,15.37,2.66l.73.2.55-.51c1.63-1.51,3.75-2.34,5.96-2.34s4.33.83,5.96,2.34l.55.51.73-.2c5.93-1.65,12.95-2.66,15.37-2.66,4.84,0,8.77,3.94,8.77,8.77s-3.94,8.77-8.77,8.77c-2.42,0-9.44-1.01-15.37-2.66l-.73-.2-.55.51c-.98.91-2.18,1.6-3.45,1.98l-.96.29v8.04l1.12.19c3.31.56,6.3,2.13,8.65,4.54l.4.41h18.18c4.7,0,9.12,1.84,12.45,5.19,3.27,3.28,5.06,7.6,5.05,12.17l.09,11.88c0,.41-.16.81-.45,1.1-.29.29-.68.45-1.09.45h-16.94c-.85,0-1.54-.69-1.54-1.54v-8.51h-15.3l-.4.45c-3.02,3.38-7.2,5.25-11.76,5.25s-8.74-1.86-11.76-5.25l-.4-.45h-18.84l-.1,1.25c-.22,2.78-2.57,4.95-5.36,4.95h-9.02v3.88c0,.85-.69,1.54-1.54,1.54ZM270.56,106.53c2.43,0,4.41,1.98,4.41,4.41v5.64h13.85l-.08-10.33c.01-3.77-1.46-7.32-4.15-10.02-2.75-2.76-6.4-4.28-10.27-4.28h-18.89c-.46,0-.89-.2-1.18-.56-2.43-2.93-6-4.62-9.81-4.62s-7.38,1.68-9.81,4.62c-.29.35-.72.56-1.18.56h-20.09v14.58h19.68c.48,0,.94.23,1.23.61,2.43,3.23,6.14,5.08,10.17,5.08s7.74-1.85,10.17-5.08c.29-.38.75-.61,1.23-.61h14.72ZM198.95,112.73h9.02c1.27,0,2.3-1.03,2.3-2.3v-22.36c0-1.27-1.03-2.3-2.3-2.3h-9.02v26.96ZM267.04,61.3c-1.83,0-7.83.84-13.07,2.15l-1.28.32.29,1.29c.14.64.22,1.29.22,1.94s-.07,1.3-.22,1.94l-.29,1.29,1.28.32c5.23,1.31,11.24,2.15,13.07,2.15,3.14,0,5.7-2.56,5.7-5.7s-2.56-5.7-5.7-5.7ZM244.43,61.3c-3.14,0-5.7,2.56-5.7,5.7s2.56,5.7,5.7,5.7,5.7-2.56,5.7-5.7-2.56-5.7-5.7-5.7ZM221.81,61.3c-3.14,0-5.7,2.56-5.7,5.7s2.56,5.7,5.7,5.7c1.83,0,7.83-.84,13.07-2.15l1.28-.32-.29-1.29c-.14-.64-.22-1.29-.22-1.94s.07-1.3.22-1.94l.29-1.29-1.28-.32c-5.23-1.31-11.24-2.15-13.07-2.15Z"/>
      <g>
        <path class="cls-7" d="M156.49,255.76c-.13-.14-.38-.14-.51,0-.25.28-6.23,6.98-6.23,10.47s2.91,6.48,6.48,6.48,6.48-2.91,6.48-6.48-5.98-10.18-6.23-10.47ZM156.23,272.03c-3.2,0-5.8-2.6-5.8-5.8,0-2.84,4.65-8.39,5.8-9.72,1.15,1.33,5.8,6.88,5.8,9.72,0,3.2-2.6,5.8-5.8,5.8Z"/>
        <path class="cls-7" d="M156.23,269.3c-1.69,0-3.07-1.38-3.07-3.07,0-.19-.15-.34-.34-.34s-.34.15-.34.34c0,2.07,1.68,3.75,3.75,3.75.19,0,.34-.15.34-.34s-.15-.34-.34-.34Z"/>
      </g>
      <g>
        <path class="cls-7" d="M168.52,237.8c-.13-.14-.38-.14-.51,0-.25.28-6.23,6.98-6.23,10.47s2.91,6.48,6.48,6.48,6.48-2.91,6.48-6.48-5.98-10.18-6.23-10.47ZM168.27,254.07c-3.2,0-5.8-2.6-5.8-5.8,0-2.84,4.65-8.39,5.8-9.72,1.15,1.33,5.8,6.88,5.8,9.72,0,3.2-2.6,5.8-5.8,5.8Z"/>
        <path class="cls-7" d="M168.27,251.34c-1.69,0-3.07-1.38-3.07-3.07,0-.19-.15-.34-.34-.34s-.34.15-.34.34c0,2.07,1.68,3.75,3.75,3.75.19,0,.34-.15.34-.34s-.15-.34-.34-.34Z"/>
      </g>
      <g>
        <rect class="cls-9" x="148.39" y="339.53" width="16.36" height="5.4"/>
        <rect class="cls-9" x="153.87" y="333.83" width="5.41" height="16.61"/>
      </g>
      <g>
        <rect class="cls-9" x="163.21" y="321.64" width="16.36" height="5.4"/>
        <rect class="cls-9" x="168.68" y="315.93" width="5.41" height="16.61"/>
      </g>
      <line class="cls-6" x1="133.65" y1="401.45" x2="439.78" y2="401.45"/>
      <g>
        <line class="cls-1" x1="404.51" y1="172.53" x2="404.51" y2="179.72"/>
        <line class="cls-5" x1="404.51" y1="193.75" x2="404.51" y2="383.11"/>
        <line class="cls-1" x1="404.51" y1="390.13" x2="404.51" y2="397.32"/>
      </g>
      <g>
        <path class="cls-7" d="M278.42,170.21c-.13-.14-.38-.14-.51,0-.25.28-6.23,6.98-6.23,10.47s2.91,6.48,6.48,6.48,6.48-2.91,6.48-6.48-5.98-10.18-6.23-10.47ZM278.17,186.47c-3.2,0-5.8-2.6-5.8-5.8,0-2.84,4.65-8.39,5.8-9.72,1.15,1.33,5.8,6.88,5.8,9.72,0,3.2-2.6,5.8-5.8,5.8Z"/>
        <path class="cls-7" d="M278.17,183.74c-1.69,0-3.07-1.38-3.07-3.07,0-.19-.15-.34-.34-.34s-.34.15-.34.34c0,2.07,1.68,3.75,3.75,3.75.19,0,.34-.15.34-.34s-.15-.34-.34-.34Z"/>
      </g>
      <g>
        <path class="cls-7" d="M297.64,188.63c-.13-.14-.38-.14-.51,0-.25.28-6.23,6.98-6.23,10.47s2.91,6.48,6.48,6.48,6.48-2.91,6.48-6.48-5.98-10.18-6.23-10.47ZM297.38,204.9c-3.2,0-5.8-2.6-5.8-5.8,0-2.84,4.65-8.39,5.8-9.72,1.15,1.33,5.8,6.88,5.8,9.72,0,3.2-2.6,5.8-5.8,5.8Z"/>
        <path class="cls-7" d="M297.38,202.17c-1.69,0-3.07-1.38-3.07-3.07,0-.19-.15-.34-.34-.34s-.34.15-.34.34c0,2.07,1.68,3.75,3.75,3.75.19,0,.34-.15.34-.34s-.15-.34-.34-.34Z"/>
      </g>
      <g>
        <path class="cls-7" d="M316.5,199.2c-.13-.14-.38-.14-.51,0-.25.28-6.23,6.98-6.23,10.47s2.91,6.48,6.48,6.48,6.48-2.91,6.48-6.48-5.98-10.18-6.23-10.47ZM316.24,215.47c-3.2,0-5.8-2.6-5.8-5.8,0-2.84,4.65-8.39,5.8-9.72,1.15,1.33,5.8,6.88,5.8,9.72,0,3.2-2.6,5.8-5.8,5.8Z"/>
        <path class="cls-7" d="M316.24,212.74c-1.69,0-3.07-1.38-3.07-3.07,0-.19-.15-.34-.34-.34s-.34.15-.34.34c0,2.07,1.68,3.75,3.75,3.75.19,0,.34-.15.34-.34s-.15-.34-.34-.34Z"/>
      </g>
      <g>
        <path class="cls-7" d="M329.55,211.31c-.13-.14-.38-.14-.51,0-.25.28-6.23,6.98-6.23,10.47s2.91,6.48,6.48,6.48,6.48-2.91,6.48-6.48-5.98-10.18-6.23-10.47ZM329.3,227.58c-3.2,0-5.8-2.6-5.8-5.8,0-2.84,4.65-8.39,5.8-9.72,1.15,1.33,5.8,6.88,5.8,9.72,0,3.2-2.6,5.8-5.8,5.8Z"/>
        <path class="cls-7" d="M329.3,224.85c-1.69,0-3.07-1.38-3.07-3.07,0-.19-.15-.34-.34-.34s-.34.15-.34.34c0,2.07,1.68,3.75,3.75,3.75.19,0,.34-.15.34-.34s-.15-.34-.34-.34Z"/>
      </g>
      <g>
        <path class="cls-7" d="M342.18,227.69c-.13-.14-.38-.14-.51,0-.25.28-6.23,6.98-6.23,10.47s2.91,6.48,6.48,6.48,6.48-2.91,6.48-6.48-5.98-10.18-6.23-10.47ZM341.92,243.95c-3.2,0-5.8-2.6-5.8-5.8,0-2.84,4.65-8.39,5.8-9.72,1.15,1.33,5.8,6.88,5.8,9.72,0,3.2-2.6,5.8-5.8,5.8Z"/>
        <path class="cls-7" d="M341.92,241.22c-1.69,0-3.07-1.38-3.07-3.07,0-.19-.15-.34-.34-.34s-.34.15-.34.34c0,2.07,1.68,3.75,3.75,3.75.19,0,.34-.15.34-.34s-.15-.34-.34-.34Z"/>
      </g>
      <g>
        <path class="cls-7" d="M354.46,244.16c-.13-.14-.38-.14-.51,0-.25.28-6.23,6.98-6.23,10.47s2.91,6.48,6.48,6.48,6.48-2.91,6.48-6.48-5.98-10.18-6.23-10.47ZM354.21,260.43c-3.2,0-5.8-2.6-5.8-5.8,0-2.84,4.65-8.39,5.8-9.72,1.15,1.33,5.8,6.88,5.8,9.72,0,3.2-2.6,5.8-5.8,5.8Z"/>
        <path class="cls-7" d="M354.21,257.7c-1.69,0-3.07-1.38-3.07-3.07,0-.19-.15-.34-.34-.34s-.34.15-.34.34c0,2.07,1.68,3.75,3.75,3.75.19,0,.34-.15.34-.34s-.15-.34-.34-.34Z"/>
      </g>
      <g>
        <path class="cls-7" d="M372.64,247.91c-.13-.14-.38-.14-.51,0-.25.28-6.23,6.98-6.23,10.47s2.91,6.48,6.48,6.48,6.48-2.91,6.48-6.48-5.98-10.18-6.23-10.47ZM372.39,264.18c-3.2,0-5.8-2.6-5.8-5.8,0-2.84,4.65-8.39,5.8-9.72,1.15,1.33,5.8,6.88,5.8,9.72,0,3.2-2.6,5.8-5.8,5.8Z"/>
        <path class="cls-7" d="M372.39,261.45c-1.69,0-3.07-1.38-3.07-3.07,0-.19-.15-.34-.34-.34s-.34.15-.34.34c0,2.07,1.68,3.75,3.75,3.75.19,0,.34-.15.34-.34s-.15-.34-.34-.34Z"/>
      </g>
      <g>
        <path class="cls-7" d="M391.38,239.41c-.12-.15-.37-.16-.51-.03-.27.27-6.59,6.64-6.78,10.12-.19,3.57,2.56,6.63,6.13,6.82s6.63-2.56,6.82-6.13-5.43-10.48-5.67-10.78ZM390.26,255.64c-3.19-.17-5.65-2.91-5.49-6.1.15-2.84,5.09-8.13,6.31-9.4,1.08,1.39,5.43,7.18,5.28,10.01-.17,3.19-2.91,5.65-6.1,5.49Z"/>
        <path class="cls-7" d="M390.4,252.91c-1.69-.09-2.99-1.54-2.9-3.23.01-.19-.13-.35-.32-.36s-.35.13-.36.32c-.11,2.07,1.48,3.84,3.55,3.95.19,0,.35-.13.36-.32s-.13-.35-.32-.36Z"/>
      </g>
      <g>
        <path class="cls-7" d="M200.02,205.09c-.13-.14-.38-.14-.51,0-.25.28-6.23,6.98-6.23,10.47s2.91,6.48,6.48,6.48,6.48-2.91,6.48-6.48-5.98-10.18-6.23-10.47ZM199.77,221.36c-3.2,0-5.8-2.6-5.8-5.8,0-2.84,4.65-8.39,5.8-9.72,1.15,1.33,5.8,6.88,5.8,9.72,0,3.2-2.6,5.8-5.8,5.8Z"/>
        <path class="cls-7" d="M199.77,218.63c-1.69,0-3.07-1.38-3.07-3.07,0-.19-.15-.34-.34-.34s-.34.15-.34.34c0,2.07,1.68,3.75,3.75,3.75.19,0,.34-.15.34-.34s-.15-.34-.34-.34Z"/>
      </g>
      <g>
        <path class="cls-7" d="M181.92,219.84c-.13-.14-.38-.14-.51,0-.25.28-6.23,6.98-6.23,10.47s2.91,6.48,6.48,6.48,6.48-2.91,6.48-6.48-5.98-10.18-6.23-10.47ZM181.66,236.11c-3.2,0-5.8-2.6-5.8-5.8,0-2.84,4.65-8.39,5.8-9.72,1.15,1.33,5.8,6.88,5.8,9.72,0,3.2-2.6,5.8-5.8,5.8Z"/>
        <path class="cls-7" d="M181.66,233.38c-1.69,0-3.07-1.38-3.07-3.07,0-.19-.15-.34-.34-.34s-.34.15-.34.34c0,2.07,1.68,3.75,3.75,3.75.19,0,.34-.15.34-.34s-.15-.34-.34-.34Z"/>
      </g>
      <g>
        <path class="cls-7" d="M219.18,194.43c-.13-.14-.38-.14-.51,0-.25.28-6.23,6.98-6.23,10.47s2.91,6.48,6.48,6.48,6.48-2.91,6.48-6.48-5.98-10.18-6.23-10.47ZM218.92,210.69c-3.2,0-5.8-2.6-5.8-5.8,0-2.84,4.65-8.39,5.8-9.72,1.15,1.33,5.8,6.88,5.8,9.72,0,3.2-2.6,5.8-5.8,5.8Z"/>
        <path class="cls-7" d="M218.92,207.96c-1.69,0-3.07-1.38-3.07-3.07,0-.19-.15-.34-.34-.34s-.34.15-.34.34c0,2.07,1.68,3.75,3.75,3.75.19,0,.34-.15.34-.34s-.15-.34-.34-.34Z"/>
      </g>
      <g>
        <path class="cls-7" d="M239.34,190.33c-.13-.14-.38-.14-.51,0-.25.28-6.23,6.98-6.23,10.47s2.91,6.48,6.48,6.48,6.48-2.91,6.48-6.48-5.98-10.18-6.23-10.47ZM239.09,206.6c-3.2,0-5.8-2.6-5.8-5.8,0-2.84,4.65-8.39,5.8-9.72,1.15,1.33,5.8,6.88,5.8,9.72,0,3.2-2.6,5.8-5.8,5.8Z"/>
        <path class="cls-7" d="M239.09,203.87c-1.69,0-3.07-1.38-3.07-3.07,0-.19-.15-.34-.34-.34s-.34.15-.34.34c0,2.07,1.68,3.75,3.75,3.75.19,0,.34-.15.34-.34s-.15-.34-.34-.34Z"/>
      </g>
      <g>
        <path class="cls-7" d="M259.74,183c-.13-.14-.38-.14-.51,0-.25.28-6.23,6.98-6.23,10.47s2.91,6.48,6.48,6.48,6.48-2.91,6.48-6.48-5.98-10.18-6.23-10.47ZM259.48,199.26c-3.2,0-5.8-2.6-5.8-5.8,0-2.84,4.65-8.39,5.8-9.72,1.15,1.33,5.8,6.88,5.8,9.72,0,3.2-2.6,5.8-5.8,5.8Z"/>
        <path class="cls-7" d="M259.48,196.53c-1.69,0-3.07-1.38-3.07-3.07,0-.19-.15-.34-.34-.34s-.34.15-.34.34c0,2.07,1.68,3.75,3.75,3.75.19,0,.34-.15.34-.34s-.15-.34-.34-.34Z"/>
      </g>
      <g>
        <rect class="cls-9" x="181.32" y="300.41" width="16.36" height="5.4"/>
        <rect class="cls-9" x="186.8" y="294.71" width="5.41" height="16.61"/>
      </g>
      <g>
        <rect class="cls-9" x="317.36" y="273.76" width="16.36" height="5.4"/>
        <rect class="cls-9" x="322.84" y="268.06" width="5.41" height="16.61"/>
      </g>
      <g>
        <rect class="cls-9" x="299.43" y="253.91" width="16.36" height="5.4"/>
        <rect class="cls-9" x="304.91" y="248.2" width="5.41" height="16.61"/>
      </g>
      <g>
        <rect class="cls-9" x="285.45" y="234" width="16.36" height="5.4"/>
        <rect class="cls-9" x="290.93" y="228.3" width="5.41" height="16.61"/>
      </g>
      <g>
        <rect class="cls-9" x="334.08" y="292.11" width="16.36" height="5.4"/>
        <rect class="cls-9" x="339.56" y="286.4" width="5.41" height="16.61"/>
      </g>
      <g>
        <rect class="cls-9" x="357.72" y="284.87" width="16.36" height="5.4"/>
        <rect class="cls-9" x="363.2" y="279.17" width="5.41" height="16.61"/>
      </g>
      <g>
        <rect class="cls-9" x="381.12" y="272.36" width="16.36" height="5.4"/>
        <rect class="cls-9" x="386.6" y="266.66" width="5.41" height="16.61"/>
      </g>
      <g>
        <rect class="cls-9" x="262.85" y="236.8" width="16.36" height="5.4"/>
        <rect class="cls-9" x="268.33" y="231.1" width="5.41" height="16.61"/>
      </g>
      <g>
        <rect class="cls-9" x="238.5" y="247.37" width="16.36" height="5.4"/>
        <rect class="cls-9" x="243.98" y="241.67" width="5.41" height="16.61"/>
      </g>
      <g>
        <rect class="cls-9" x="217.44" y="264.16" width="16.36" height="5.4"/>
        <rect class="cls-9" x="222.92" y="258.45" width="5.41" height="16.61"/>
      </g>
      <g>
        <rect class="cls-9" x="196.76" y="280.67" width="16.36" height="5.4"/>
        <rect class="cls-9" x="202.24" y="274.96" width="5.41" height="16.61"/>
      </g>
      <g>
        <path class="cls-7" d="M280.13,136.17c-.13-.14-.38-.14-.51,0-.25.28-6.23,6.98-6.23,10.47s2.91,6.48,6.48,6.48,6.48-2.91,6.48-6.48-5.98-10.18-6.23-10.47ZM279.88,152.43c-3.2,0-5.8-2.6-5.8-5.8,0-2.84,4.65-8.39,5.8-9.72,1.15,1.33,5.8,6.88,5.8,9.72,0,3.2-2.6,5.8-5.8,5.8Z"/>
        <path class="cls-7" d="M279.88,149.7c-1.69,0-3.07-1.38-3.07-3.07,0-.19-.15-.34-.34-.34s-.34.15-.34.34c0,2.07,1.68,3.75,3.75,3.75.19,0,.34-.15.34-.34s-.15-.34-.34-.34Z"/>
      </g>
      <g>
        <path class="cls-11" d="M135.01,432.04h6.66l1.43,10.75c.29,2.28.48,4.52.76,6.87h.15c.25-2.35.59-4.66,1.07-6.87l1.45-7.66h4.98l1.5,7.66c.45,2.28.85,4.52,1.17,6.87h.19c.31-2.35.4-4.58.66-6.87l1.29-10.75h6.38l-3.58,23.18h-8.05l-1.27-7.54c-.31-1.99-.58-4.2-.85-6.86h-.19c-.21,1.95-.41,3.96-.78,6.86l-1.24,7.54h-7.92l-3.81-23.18Z"/>
        <path class="cls-11" d="M163.04,432.04h6.66l1.43,10.75c.29,2.28.48,4.52.76,6.87h.15c.25-2.35.59-4.66,1.07-6.87l1.46-7.66h4.98l1.5,7.66c.45,2.28.85,4.52,1.17,6.87h.19c.31-2.35.4-4.58.66-6.87l1.29-10.75h6.38l-3.58,23.18h-8.05l-1.27-7.54c-.31-1.99-.58-4.2-.85-6.86h-.19c-.21,1.95-.41,3.96-.78,6.86l-1.24,7.54h-7.92l-3.81-23.18Z"/>
        <path class="cls-11" d="M203.9,437.43h-9.33v-5.39h16.21v23.18h-6.88v-17.79ZM202.46,424.21c0-2.52,1.92-4.27,4.57-4.27s4.57,1.75,4.57,4.27-1.92,4.2-4.57,4.2-4.57-1.67-4.57-4.2Z"/>
        <path class="cls-11" d="M222.31,432.04h5.6l.5,3.09h.19c2.01-1.97,4.56-3.65,8.01-3.65,5.24,0,7.55,3.58,7.55,9.43v14.31h-6.88v-13.43c0-3.08-.89-4.45-3.4-4.45-1.83,0-3.08.85-4.69,2.41v15.47h-6.88v-23.18Z"/>
        <path class="cls-11" d="M250.81,432.3l6.35-.27h14.6v5.39h-20.96v-5.12ZM256.93,431.44c0-5.31,3.1-9.51,10.37-9.51,2.65,0,5.07.59,7.01,1.24l-1.33,5.05c-1.46-.56-3.08-.91-4.84-.91-2.95,0-4.35,1.28-4.35,4.08v23.82h-6.87v-23.78Z"/>
        <path class="cls-11" d="M277.58,443.61c0-7.58,5.85-12.14,12.06-12.14,7.15,0,10.91,4.82,10.91,11.12,0,1.26-.19,2.5-.29,3.08h-17.58v-4.61h12.94l-1.08,1.31c0-3.72-1.62-5.68-4.66-5.68-3.4,0-5.62,2.3-5.62,6.91s2.62,6.92,7.12,6.92c2.1,0,3.92-.57,5.97-1.61l2.28,4.14c-2.65,1.7-6.08,2.71-9.19,2.71-7.23,0-12.85-4.46-12.85-12.16Z"/>
        <path class="cls-11" d="M308.43,432.04h5.65l.54,5.07h.16c2.28-3.79,5.7-5.63,9.4-5.63,2.02,0,3.12.33,4.45.93l-1.39,5.78c-1.45-.45-2.4-.68-4.1-.68-2.87,0-5.83,1.49-7.83,5.65v12.06h-6.88v-23.18Z"/>
        <path class="cls-11" d="M333.64,443.61c0-7.58,5.85-12.14,12.06-12.14,7.15,0,10.91,4.82,10.91,11.12,0,1.26-.19,2.5-.29,3.08h-17.58v-4.61h12.94l-1.08,1.31c0-3.72-1.62-5.68-4.66-5.68-3.4,0-5.62,2.3-5.62,6.91s2.62,6.92,7.12,6.92c2.1,0,3.92-.57,5.97-1.61l2.28,4.14c-2.65,1.7-6.08,2.71-9.19,2.71-7.23,0-12.85-4.46-12.85-12.16Z"/>
        <path class="cls-11" d="M362.48,432.04h5.6l.5,3.09h.19c2.01-1.97,4.56-3.65,8.01-3.65,5.24,0,7.55,3.58,7.55,9.43v14.31h-6.88v-13.43c0-3.08-.89-4.45-3.4-4.45-1.83,0-3.08.85-4.69,2.41v15.47h-6.88v-23.18Z"/>
        <path class="cls-11" d="M390.27,443.64c0-7.72,6.27-12.16,13.4-12.16,3.66,0,6.74,1.29,8.67,3.15l-3.16,4.26c-1.77-1.29-3.39-1.86-5.14-1.86-3.99,0-6.74,2.59-6.74,6.61s2.71,6.59,6.51,6.59c2.43,0,4.43-1.06,6.1-2.21l2.77,4.34c-2.79,2.34-6.36,3.42-9.52,3.42-7.3,0-12.9-4.45-12.9-12.14Z"/>
        <path class="cls-11" d="M417.75,443.61c0-7.58,5.85-12.14,12.06-12.14,7.15,0,10.91,4.82,10.91,11.12,0,1.26-.19,2.5-.29,3.08h-17.58v-4.61h12.94l-1.08,1.31c0-3.72-1.62-5.68-4.66-5.68-3.4,0-5.62,2.3-5.62,6.91s2.62,6.92,7.12,6.92c2.1,0,3.92-.57,5.97-1.61l2.28,4.14c-2.65,1.7-6.08,2.71-9.19,2.71-7.23,0-12.85-4.46-12.85-12.16Z"/>
      </g>
      <path class="cls-8" d="M523.47,306.49c-11.31-4.05-22.05-18.43-33.49-22.13-11.29-3.66-18.31-10.63-29.6-14.29-3.87-1.25-9.29-2.82-13.34-3.3-11.16-1.3-26.18-.27-37.21.43l.08-28.58c5.39-.5,12.33-3.79,17.05-6.59,7.15-4.22,13.11-4.94,20.96-7.62,14.23-4.87,25.79-6.61,40.6-9.23,8.76-1.55,20.08-8.07,27.31-13.27,2.22-1.61,4.3-11.62,6.39-13.41l1.26,117.97Z"/>
      <path class="cls-10" d="M522.89,279.97c-13.86-5.28-14.86-9.05-34.09-10.41-6.24-.44-23.21-8.1-29.41-9.15-4.35-.76-8.82-.45-13.26-.14-11.88.86-23.77,1.67-35.65,2.53l-.34-19.12c5.41,1.25,11.34.43,16.85-1.25,6.84-2.06,13.3-5.37,20.07-7.7,6.75-2.32,14.14-3.56,20.75-1.4,4.99,1.65,9.24,5.15,14.36,6.36,5.54,1.3,13.83,3.31,18.98.46,5.14-2.83,7.15-6.73,11.54-10.73,2.68-2.43,7.12-5.77,9.78-8.21l.41,58.77Z"/>
      <path class="cls-1" d="M412.75,252.83c17.9-2.48,19.34-.85,36.99-5.12,1.3-.31,11.08-4.32,14.33-4.19,6.45.27,13.15,6.95,16.49,9.66,8.87,7.22,27.81,4.1,39.25-.22"/>
    </g>
  </g>
</svg>
