<?xml version="1.0" encoding="UTF-8"?>
<svg id="Layer_1" xmlns="http://www.w3.org/2000/svg" viewBox="0 0 612 792">
  <defs>
    <style>
      .cls-1 {
        stroke-width: 1.1px;
      }

      .cls-1, .cls-2, .cls-3, .cls-4, .cls-5, .cls-6, .cls-7 {
        stroke-miterlimit: 10;
      }

      .cls-1, .cls-2, .cls-3, .cls-4, .cls-6, .cls-7 {
        stroke: #fff;
      }

      .cls-1, .cls-8, .cls-5, .cls-6, .cls-7 {
        fill: #fff;
      }

      .cls-9 {
        fill: #e6e7e8;
        opacity: .2;
      }

      .cls-10 {
        fill: #58595b;
        opacity: .4;
      }

      .cls-2, .cls-4 {
        fill: none;
      }

      .cls-2, .cls-4, .cls-5, .cls-7 {
        stroke-linecap: round;
        stroke-width: 3.13px;
      }

      .cls-3 {
        fill: #1e4697;
        stroke-width: .53px;
      }

      .cls-11 {
        fill: #f1f2f2;
      }

      .cls-4 {
        stroke-dasharray: 12.23 12.23;
      }

      .cls-5 {
        stroke: #f1f2f2;
      }

      .cls-6 {
        stroke-width: .16px;
      }
    </style>
  </defs>
  <polygon class="cls-3" points="433.3 172.49 181.7 172.49 55.9 393.38 181.7 614.27 433.3 614.27 559.1 393.38 433.3 172.49"/>
  <line class="cls-7" x1="172.15" y1="332.24" x2="172.15" y2="521.69"/>
  <path class="cls-6" d="M227.76,277.93c-.74,0-1.34-.6-1.34-1.34v-34.48c0-.74.6-1.34,1.34-1.34s1.34.6,1.34,1.34v2.23h7.87c2.42,0,4.48,1.89,4.67,4.31l.09,1.08h16.83l.35-.36c2.05-2.1,4.65-3.47,7.54-3.96l.98-.17v-7.01l-.84-.25c-1.12-.33-2.16-.93-3.02-1.73l-.48-.45-.63.18c-5.17,1.43-11.3,2.32-13.41,2.32-4.22,0-7.65-3.43-7.65-7.65s3.43-7.65,7.65-7.65c2.11,0,8.23.88,13.41,2.32l.63.18.48-.45c1.42-1.32,3.27-2.04,5.2-2.04s3.78.73,5.2,2.04l.48.45.63-.18c5.17-1.44,11.3-2.32,13.41-2.32,4.22,0,7.65,3.43,7.65,7.65s-3.43,7.65-7.65,7.65c-2.11,0-8.23-.88-13.41-2.32l-.63-.18-.48.45c-.86.8-1.9,1.39-3.01,1.72l-.84.25v7.01l.98.17c2.89.49,5.49,1.86,7.54,3.96l.35.36h15.85c4.1,0,7.95,1.61,10.86,4.52,2.85,2.86,4.41,6.63,4.4,10.61l.08,10.36c0,.36-.14.7-.39.96-.25.25-.6.4-.95.4h-14.77c-.74,0-1.34-.6-1.34-1.34v-7.43h-13.34l-.35.39c-2.64,2.95-6.28,4.58-10.26,4.58s-7.62-1.62-10.26-4.58l-.35-.39h-16.43l-.08,1.09c-.19,2.42-2.24,4.32-4.67,4.32h-7.87v3.38c0,.74-.6,1.34-1.34,1.34ZM291.55,265.12c2.12,0,3.85,1.73,3.85,3.85v4.92h12.08l-.07-9.01c.01-3.29-1.27-6.38-3.62-8.74-2.4-2.41-5.58-3.73-8.96-3.73h-16.48c-.4,0-.78-.18-1.03-.49-2.12-2.56-5.24-4.03-8.55-4.03s-6.43,1.47-8.55,4.03c-.26.31-.63.49-1.03.49h-17.52v12.71h17.16c.42,0,.82.2,1.07.53,2.12,2.82,5.35,4.43,8.87,4.43s6.75-1.62,8.87-4.43c.25-.33.65-.53,1.07-.53h12.84ZM229.1,270.53h7.87c1.11,0,2.01-.9,2.01-2.01v-19.5c0-1.11-.9-2.01-2.01-2.01h-7.87v23.51ZM288.48,225.68c-1.6,0-6.83.73-11.4,1.88l-1.12.28.25,1.12c.13.56.19,1.13.19,1.69s-.06,1.13-.19,1.69l-.25,1.12,1.12.28c4.56,1.15,9.8,1.88,11.4,1.88,2.74,0,4.97-2.23,4.97-4.97s-2.23-4.97-4.97-4.97ZM268.76,225.68c-2.74,0-4.97,2.23-4.97,4.97s2.23,4.97,4.97,4.97,4.97-2.23,4.97-4.97-2.23-4.97-4.97-4.97ZM249.04,225.68c-2.74,0-4.97,2.23-4.97,4.97s2.23,4.97,4.97,4.97c1.6,0,6.83-.73,11.4-1.88l1.12-.28-.25-1.12c-.13-.56-.19-1.13-.19-1.69s.06-1.13.19-1.69l.25-1.12-1.12-.28c-4.56-1.15-9.8-1.88-11.4-1.88Z"/>
  <g>
    <path class="cls-1" d="M192.07,395.27c-.11-.13-.33-.13-.44,0-.22.25-5.43,6.09-5.43,9.13s2.54,5.65,5.65,5.65,5.65-2.54,5.65-5.65-5.21-8.88-5.43-9.13ZM191.85,409.45c-2.79,0-5.06-2.27-5.06-5.06,0-2.48,4.06-7.32,5.06-8.48,1,1.16,5.06,6,5.06,8.48,0,2.79-2.27,5.06-5.06,5.06Z"/>
    <path class="cls-1" d="M191.85,407.07c-1.48,0-2.68-1.2-2.68-2.68,0-.16-.13-.3-.3-.3s-.3.13-.3.3c0,1.8,1.47,3.27,3.27,3.27.16,0,.3-.13.3-.3s-.13-.3-.3-.3Z"/>
  </g>
  <g>
    <path class="cls-1" d="M202.57,379.6c-.11-.13-.33-.13-.44,0-.22.25-5.43,6.09-5.43,9.13s2.54,5.65,5.65,5.65,5.65-2.54,5.65-5.65-5.21-8.88-5.43-9.13ZM202.34,393.79c-2.79,0-5.06-2.27-5.06-5.06,0-2.48,4.06-7.32,5.06-8.48,1,1.16,5.06,6,5.06,8.48,0,2.79-2.27,5.06-5.06,5.06Z"/>
    <path class="cls-1" d="M202.34,391.41c-1.48,0-2.68-1.2-2.68-2.68,0-.16-.13-.3-.3-.3s-.3.13-.3.3c0,1.8,1.47,3.27,3.27,3.27.16,0,.3-.13.3-.3s-.13-.3-.3-.3Z"/>
  </g>
  <g>
    <rect class="cls-8" x="185.01" y="468.32" width="14.27" height="4.71"/>
    <rect class="cls-8" x="189.79" y="463.35" width="4.71" height="14.49"/>
  </g>
  <g>
    <rect class="cls-8" x="197.93" y="452.72" width="14.27" height="4.71"/>
    <rect class="cls-8" x="202.71" y="447.74" width="4.71" height="14.49"/>
  </g>
  <line class="cls-5" x1="172.15" y1="522.32" x2="439.12" y2="522.32"/>
  <g>
    <line class="cls-2" x1="408.37" y1="322.68" x2="408.37" y2="328.95"/>
    <line class="cls-4" x1="408.37" y1="341.18" x2="408.37" y2="506.33"/>
    <line class="cls-2" x1="408.37" y1="512.45" x2="408.37" y2="518.72"/>
  </g>
  <g>
    <path class="cls-1" d="M298.41,320.65c-.11-.13-.33-.13-.44,0-.22.25-5.43,6.09-5.43,9.13s2.54,5.65,5.65,5.65,5.65-2.54,5.65-5.65-5.21-8.88-5.43-9.13ZM298.19,334.84c-2.79,0-5.06-2.27-5.06-5.06,0-2.48,4.06-7.32,5.06-8.48,1,1.16,5.06,6,5.06,8.48,0,2.79-2.27,5.06-5.06,5.06Z"/>
    <path class="cls-1" d="M298.19,332.46c-1.48,0-2.68-1.2-2.68-2.68,0-.16-.13-.3-.3-.3s-.3.13-.3.3c0,1.8,1.47,3.27,3.27,3.27.16,0,.3-.13.3-.3s-.13-.3-.3-.3Z"/>
  </g>
  <g>
    <path class="cls-1" d="M315.16,336.72c-.11-.13-.33-.13-.44,0-.22.25-5.43,6.09-5.43,9.13s2.54,5.65,5.65,5.65,5.65-2.54,5.65-5.65-5.21-8.88-5.43-9.13ZM314.94,350.91c-2.79,0-5.06-2.27-5.06-5.06,0-2.48,4.06-7.32,5.06-8.48,1,1.16,5.06,6,5.06,8.48,0,2.79-2.27,5.06-5.06,5.06Z"/>
    <path class="cls-1" d="M314.94,348.53c-1.48,0-2.68-1.2-2.68-2.68,0-.16-.13-.3-.3-.3s-.3.13-.3.3c0,1.8,1.47,3.27,3.27,3.27.16,0,.3-.13.3-.3s-.13-.3-.3-.3Z"/>
  </g>
  <g>
    <path class="cls-1" d="M331.61,345.94c-.11-.13-.33-.13-.44,0-.22.25-5.43,6.09-5.43,9.13s2.54,5.65,5.65,5.65,5.65-2.54,5.65-5.65-5.21-8.88-5.43-9.13ZM331.39,360.13c-2.79,0-5.06-2.27-5.06-5.06,0-2.48,4.06-7.32,5.06-8.48,1,1.16,5.06,6,5.06,8.48,0,2.79-2.27,5.06-5.06,5.06Z"/>
    <path class="cls-1" d="M331.39,357.75c-1.48,0-2.68-1.2-2.68-2.68,0-.16-.13-.3-.3-.3s-.3.13-.3.3c0,1.8,1.47,3.27,3.27,3.27.16,0,.3-.13.3-.3s-.13-.3-.3-.3Z"/>
  </g>
  <g>
    <path class="cls-1" d="M343,356.5c-.11-.13-.33-.13-.44,0-.22.25-5.43,6.09-5.43,9.13s2.54,5.65,5.65,5.65,5.65-2.54,5.65-5.65-5.21-8.88-5.43-9.13ZM342.78,370.69c-2.79,0-5.06-2.27-5.06-5.06,0-2.48,4.06-7.32,5.06-8.48,1,1.16,5.06,6,5.06,8.48,0,2.79-2.27,5.06-5.06,5.06Z"/>
    <path class="cls-1" d="M342.78,368.31c-1.48,0-2.68-1.2-2.68-2.68,0-.16-.13-.3-.3-.3s-.3.13-.3.3c0,1.8,1.47,3.27,3.27,3.27.16,0,.3-.13.3-.3s-.13-.3-.3-.3Z"/>
  </g>
  <g>
    <path class="cls-1" d="M354.01,370.78c-.11-.13-.33-.13-.44,0-.22.25-5.43,6.09-5.43,9.13s2.54,5.65,5.65,5.65,5.65-2.54,5.65-5.65-5.21-8.88-5.43-9.13ZM353.79,384.97c-2.79,0-5.06-2.27-5.06-5.06,0-2.48,4.06-7.32,5.06-8.48,1,1.16,5.06,6,5.06,8.48,0,2.79-2.27,5.06-5.06,5.06Z"/>
    <path class="cls-1" d="M353.79,382.59c-1.48,0-2.68-1.2-2.68-2.68,0-.16-.13-.3-.3-.3s-.3.13-.3.3c0,1.8,1.47,3.27,3.27,3.27.16,0,.3-.13.3-.3s-.13-.3-.3-.3Z"/>
  </g>
  <g>
    <path class="cls-1" d="M364.72,385.15c-.11-.13-.33-.13-.44,0-.22.25-5.43,6.09-5.43,9.13s2.54,5.65,5.65,5.65,5.65-2.54,5.65-5.65-5.21-8.88-5.43-9.13ZM364.5,399.34c-2.79,0-5.06-2.27-5.06-5.06,0-2.48,4.06-7.32,5.06-8.48,1,1.16,5.06,6,5.06,8.48,0,2.79-2.27,5.06-5.06,5.06Z"/>
    <path class="cls-1" d="M364.5,396.96c-1.48,0-2.68-1.2-2.68-2.68,0-.16-.13-.3-.3-.3s-.3.13-.3.3c0,1.8,1.47,3.27,3.27,3.27.16,0,.3-.13.3-.3s-.13-.3-.3-.3Z"/>
  </g>
  <g>
    <path class="cls-1" d="M380.58,388.42c-.11-.13-.33-.13-.44,0-.22.25-5.43,6.09-5.43,9.13s2.54,5.65,5.65,5.65,5.65-2.54,5.65-5.65-5.21-8.88-5.43-9.13ZM380.36,402.61c-2.79,0-5.06-2.27-5.06-5.06,0-2.48,4.06-7.32,5.06-8.48,1,1.16,5.06,6,5.06,8.48,0,2.79-2.27,5.06-5.06,5.06Z"/>
    <path class="cls-1" d="M380.36,400.23c-1.48,0-2.68-1.2-2.68-2.68,0-.16-.13-.3-.3-.3s-.3.13-.3.3c0,1.8,1.47,3.27,3.27,3.27.16,0,.3-.13.3-.3s-.13-.3-.3-.3Z"/>
  </g>
  <g>
    <path class="cls-1" d="M396.91,381c-.11-.13-.32-.14-.44-.02-.23.24-5.75,5.79-5.91,8.83-.17,3.11,2.23,5.78,5.35,5.95s5.78-2.23,5.95-5.35-4.73-9.14-4.94-9.4ZM395.94,395.16c-2.79-.15-4.93-2.53-4.78-5.32.13-2.47,4.44-7.09,5.5-8.2.94,1.21,4.73,6.26,4.6,8.73-.15,2.79-2.53,4.93-5.32,4.78Z"/>
    <path class="cls-1" d="M396.07,392.78c-1.47-.08-2.61-1.34-2.53-2.82,0-.16-.12-.3-.28-.31s-.3.12-.31.28c-.1,1.8,1.29,3.35,3.1,3.44.16,0,.3-.12.31-.28s-.12-.3-.28-.31Z"/>
  </g>
  <g>
    <path class="cls-1" d="M230.04,351.08c-.11-.13-.33-.13-.44,0-.22.25-5.43,6.09-5.43,9.13s2.54,5.65,5.65,5.65,5.65-2.54,5.65-5.65-5.21-8.88-5.43-9.13ZM229.81,365.26c-2.79,0-5.06-2.27-5.06-5.06,0-2.48,4.06-7.32,5.06-8.48,1,1.16,5.06,6,5.06,8.48,0,2.79-2.27,5.06-5.06,5.06Z"/>
    <path class="cls-1" d="M229.81,362.88c-1.48,0-2.68-1.2-2.68-2.68,0-.16-.13-.3-.3-.3s-.3.13-.3.3c0,1.8,1.47,3.27,3.27,3.27.16,0,.3-.13.3-.3s-.13-.3-.3-.3Z"/>
  </g>
  <g>
    <path class="cls-1" d="M214.25,363.94c-.11-.13-.33-.13-.44,0-.22.25-5.43,6.09-5.43,9.13s2.54,5.65,5.65,5.65,5.65-2.54,5.65-5.65-5.21-8.88-5.43-9.13ZM214.02,378.13c-2.79,0-5.06-2.27-5.06-5.06,0-2.48,4.06-7.32,5.06-8.48,1,1.16,5.06,6,5.06,8.48,0,2.79-2.27,5.06-5.06,5.06Z"/>
    <path class="cls-1" d="M214.02,375.75c-1.48,0-2.68-1.2-2.68-2.68,0-.16-.13-.3-.3-.3s-.3.13-.3.3c0,1.8,1.47,3.27,3.27,3.27.16,0,.3-.13.3-.3s-.13-.3-.3-.3Z"/>
  </g>
  <g>
    <path class="cls-1" d="M246.74,341.78c-.11-.13-.33-.13-.44,0-.22.25-5.43,6.09-5.43,9.13s2.54,5.65,5.65,5.65,5.65-2.54,5.65-5.65-5.21-8.88-5.43-9.13ZM246.52,355.96c-2.79,0-5.06-2.27-5.06-5.06,0-2.48,4.06-7.32,5.06-8.48,1,1.16,5.06,6,5.06,8.48,0,2.79-2.27,5.06-5.06,5.06Z"/>
    <path class="cls-1" d="M246.52,353.58c-1.48,0-2.68-1.2-2.68-2.68,0-.16-.13-.3-.3-.3s-.3.13-.3.3c0,1.8,1.47,3.27,3.27,3.27.16,0,.3-.13.3-.3s-.13-.3-.3-.3Z"/>
  </g>
  <g>
    <path class="cls-1" d="M264.32,338.21c-.11-.13-.33-.13-.44,0-.22.25-5.43,6.09-5.43,9.13s2.54,5.65,5.65,5.65,5.65-2.54,5.65-5.65-5.21-8.88-5.43-9.13ZM264.1,352.39c-2.79,0-5.06-2.27-5.06-5.06,0-2.48,4.06-7.32,5.06-8.48,1,1.16,5.06,6,5.06,8.48,0,2.79-2.27,5.06-5.06,5.06Z"/>
    <path class="cls-1" d="M264.1,350.01c-1.48,0-2.68-1.2-2.68-2.68,0-.16-.13-.3-.3-.3s-.3.13-.3.3c0,1.8,1.47,3.27,3.27,3.27.16,0,.3-.13.3-.3s-.13-.3-.3-.3Z"/>
  </g>
  <g>
    <path class="cls-1" d="M282.11,331.81c-.11-.13-.33-.13-.44,0-.22.25-5.43,6.09-5.43,9.13s2.54,5.65,5.65,5.65,5.65-2.54,5.65-5.65-5.21-8.88-5.43-9.13ZM281.89,346c-2.79,0-5.06-2.27-5.06-5.06,0-2.48,4.06-7.32,5.06-8.48,1,1.16,5.06,6,5.06,8.48,0,2.79-2.27,5.06-5.06,5.06Z"/>
    <path class="cls-1" d="M281.89,343.61c-1.48,0-2.68-1.2-2.68-2.68,0-.16-.13-.3-.3-.3s-.3.13-.3.3c0,1.8,1.47,3.27,3.27,3.27.16,0,.3-.13.3-.3s-.13-.3-.3-.3Z"/>
  </g>
  <g>
    <rect class="cls-8" x="213.73" y="434.21" width="14.27" height="4.71"/>
    <rect class="cls-8" x="218.5" y="429.23" width="4.71" height="14.49"/>
  </g>
  <g>
    <rect class="cls-8" x="332.37" y="410.97" width="14.27" height="4.71"/>
    <rect class="cls-8" x="337.15" y="405.99" width="4.71" height="14.49"/>
  </g>
  <g>
    <rect class="cls-8" x="316.73" y="393.65" width="14.27" height="4.71"/>
    <rect class="cls-8" x="321.51" y="388.67" width="4.71" height="14.49"/>
  </g>
  <g>
    <rect class="cls-8" x="304.53" y="376.29" width="14.27" height="4.71"/>
    <rect class="cls-8" x="309.31" y="371.32" width="4.71" height="14.49"/>
  </g>
  <g>
    <rect class="cls-8" x="346.95" y="426.96" width="14.27" height="4.71"/>
    <rect class="cls-8" x="351.73" y="421.99" width="4.71" height="14.49"/>
  </g>
  <g>
    <rect class="cls-8" x="367.56" y="420.65" width="14.27" height="4.71"/>
    <rect class="cls-8" x="372.34" y="415.68" width="4.71" height="14.49"/>
  </g>
  <g>
    <rect class="cls-8" x="387.97" y="409.74" width="14.27" height="4.71"/>
    <rect class="cls-8" x="392.74" y="404.77" width="4.71" height="14.49"/>
  </g>
  <g>
    <rect class="cls-8" x="284.83" y="378.73" width="14.27" height="4.71"/>
    <rect class="cls-8" x="289.6" y="373.76" width="4.71" height="14.49"/>
  </g>
  <g>
    <rect class="cls-8" x="263.59" y="387.95" width="14.27" height="4.71"/>
    <rect class="cls-8" x="268.37" y="382.98" width="4.71" height="14.49"/>
  </g>
  <g>
    <rect class="cls-8" x="245.23" y="402.59" width="14.27" height="4.71"/>
    <rect class="cls-8" x="250.01" y="397.61" width="4.71" height="14.49"/>
  </g>
  <g>
    <rect class="cls-8" x="227.19" y="416.99" width="14.27" height="4.71"/>
    <rect class="cls-8" x="231.97" y="412.01" width="4.71" height="14.49"/>
  </g>
  <g>
    <path class="cls-1" d="M299.9,290.97c-.11-.13-.33-.13-.44,0-.22.25-5.43,6.09-5.43,9.13s2.54,5.65,5.65,5.65,5.65-2.54,5.65-5.65-5.21-8.88-5.43-9.13ZM299.68,305.16c-2.79,0-5.06-2.27-5.06-5.06,0-2.48,4.06-7.32,5.06-8.48,1,1.16,5.06,6,5.06,8.48,0,2.79-2.27,5.06-5.06,5.06Z"/>
    <path class="cls-1" d="M299.68,302.77c-1.48,0-2.68-1.2-2.68-2.68,0-.16-.13-.3-.3-.3s-.3.13-.3.3c0,1.8,1.47,3.27,3.27,3.27.16,0,.3-.13.3-.3s-.13-.3-.3-.3Z"/>
  </g>
  <g>
    <path class="cls-11" d="M173.34,549h5.81l1.25,9.37c.25,1.99.42,3.94.66,5.99h.13c.22-2.05.52-4.07.94-5.99l1.27-6.68h4.34l1.3,6.68c.39,1.99.74,3.94,1.02,5.99h.16c.27-2.05.35-4,.57-5.99l1.13-9.37h5.57l-3.12,20.21h-7.02l-1.11-6.57c-.27-1.74-.5-3.66-.74-5.98h-.16c-.18,1.7-.36,3.45-.68,5.98l-1.08,6.57h-6.91l-3.32-20.21Z"/>
    <path class="cls-11" d="M197.78,549h5.81l1.25,9.37c.25,1.99.42,3.94.66,5.99h.13c.22-2.05.52-4.07.94-5.99l1.27-6.68h4.34l1.3,6.68c.39,1.99.74,3.94,1.02,5.99h.16c.27-2.05.35-4,.57-5.99l1.13-9.37h5.57l-3.12,20.21h-7.02l-1.11-6.57c-.27-1.74-.5-3.66-.74-5.98h-.16c-.18,1.7-.36,3.45-.68,5.98l-1.08,6.57h-6.91l-3.32-20.21Z"/>
    <path class="cls-11" d="M233.42,553.7h-8.14v-4.7h14.14v20.21h-6v-15.51ZM232.16,542.18c0-2.2,1.67-3.72,3.98-3.72s3.98,1.53,3.98,3.72-1.67,3.67-3.98,3.67-3.98-1.46-3.98-3.67Z"/>
    <path class="cls-11" d="M249.47,549h4.89l.43,2.69h.16c1.75-1.72,3.98-3.18,6.99-3.18,4.57,0,6.58,3.12,6.58,8.22v12.48h-6v-11.71c0-2.69-.77-3.88-2.96-3.88-1.6,0-2.69.74-4.09,2.1v13.49h-6v-20.21Z"/>
    <path class="cls-11" d="M274.32,549.24l5.54-.23h12.73v4.7h-18.27v-4.47ZM279.66,548.48c0-4.63,2.7-8.29,9.04-8.29,2.31,0,4.42.51,6.11,1.08l-1.16,4.41c-1.28-.49-2.69-.79-4.22-.79-2.57,0-3.79,1.11-3.79,3.56v20.77h-5.99v-20.74Z"/>
    <path class="cls-11" d="M297.67,559.1c0-6.61,5.1-10.58,10.52-10.58,6.23,0,9.51,4.21,9.51,9.7,0,1.1-.17,2.18-.25,2.68h-15.33v-4.02h11.28l-.94,1.14c0-3.24-1.41-4.95-4.07-4.95-2.96,0-4.91,2.01-4.91,6.02s2.28,6.04,6.21,6.04c1.83,0,3.41-.5,5.21-1.4l1.99,3.61c-2.31,1.48-5.3,2.36-8.01,2.36-6.3,0-11.2-3.89-11.2-10.61Z"/>
    <path class="cls-11" d="M324.58,549h4.93l.47,4.42h.14c1.99-3.31,4.97-4.91,8.19-4.91,1.76,0,2.72.29,3.88.81l-1.21,5.04c-1.27-.39-2.09-.59-3.58-.59-2.5,0-5.08,1.3-6.83,4.93v10.51h-6v-20.21Z"/>
    <path class="cls-11" d="M346.57,559.1c0-6.61,5.1-10.58,10.52-10.58,6.23,0,9.51,4.21,9.51,9.7,0,1.1-.17,2.18-.25,2.68h-15.33v-4.02h11.28l-.94,1.14c0-3.24-1.41-4.95-4.07-4.95-2.96,0-4.91,2.01-4.91,6.02s2.28,6.04,6.21,6.04c1.83,0,3.41-.5,5.21-1.4l1.99,3.61c-2.31,1.48-5.3,2.36-8.01,2.36-6.3,0-11.2-3.89-11.2-10.61Z"/>
    <path class="cls-11" d="M371.71,549h4.89l.43,2.69h.16c1.75-1.72,3.98-3.18,6.99-3.18,4.57,0,6.58,3.12,6.58,8.22v12.48h-6v-11.71c0-2.69-.78-3.88-2.96-3.88-1.6,0-2.69.74-4.09,2.1v13.49h-6v-20.21Z"/>
    <path class="cls-11" d="M395.95,559.12c0-6.73,5.46-10.61,11.69-10.61,3.19,0,5.88,1.13,7.56,2.75l-2.76,3.72c-1.54-1.12-2.96-1.62-4.48-1.62-3.48,0-5.88,2.26-5.88,5.77s2.36,5.74,5.68,5.74c2.12,0,3.86-.92,5.32-1.93l2.42,3.79c-2.44,2.04-5.55,2.98-8.3,2.98-6.37,0-11.25-3.88-11.25-10.58Z"/>
    <path class="cls-11" d="M419.91,559.1c0-6.61,5.1-10.58,10.52-10.58,6.23,0,9.51,4.21,9.51,9.7,0,1.1-.17,2.18-.25,2.68h-15.33v-4.02h11.28l-.94,1.14c0-3.24-1.41-4.95-4.07-4.95-2.96,0-4.91,2.01-4.91,6.02s2.28,6.04,6.21,6.04c1.83,0,3.41-.5,5.21-1.4l1.99,3.61c-2.31,1.48-5.3,2.36-8.01,2.36-6.3,0-11.2-3.89-11.2-10.61Z"/>
  </g>
  <path class="cls-9" d="M512.11,439.51c-9.87-3.53-19.23-16.07-29.21-19.3-9.85-3.19-15.97-9.27-25.82-12.46-3.38-1.09-8.1-2.46-11.63-2.88-9.73-1.14-22.83-.24-32.45.38l.07-24.92c4.7-.43,10.76-3.31,14.87-5.75,6.24-3.68,11.44-4.3,18.28-6.65,12.41-4.25,22.49-5.76,35.4-8.05,7.64-1.35,17.51-7.04,23.82-11.57,1.94-1.4,3.75-10.14,5.57-11.69l1.1,102.88Z"/>
  <path class="cls-10" d="M511.6,416.38c-12.09-4.6-12.96-7.89-29.73-9.08-5.44-.39-20.24-7.06-25.65-7.98-3.79-.66-7.7-.4-11.56-.13-10.36.75-20.73,1.46-31.09,2.21l-.3-16.67c4.72,1.09,9.89.37,14.7-1.09,5.96-1.79,11.6-4.69,17.51-6.71,5.89-2.02,12.33-3.1,18.09-1.22,4.35,1.44,8.06,4.49,12.53,5.54,4.83,1.13,12.06,2.89,16.55.4,4.48-2.47,6.23-5.87,10.06-9.36,2.34-2.12,6.21-5.03,8.53-7.16l.36,51.26Z"/>
  <path class="cls-2" d="M415.55,392.71c15.61-2.16,16.86-.74,32.26-4.46,1.13-.27,9.66-3.77,12.49-3.65,5.63.24,11.47,6.06,14.38,8.43,7.74,6.3,24.26,3.57,34.23-.19"/>
</svg>
